<mxfile host="app.diagrams.net" modified="2023-11-16T10:38:15.889Z" agent="Mozilla/5.0 (X11; Ubuntu; Linux x86_64; rv:109.0) Gecko/20100101 Firefox/113.0" version="22.1.1" etag="EgT7g8awxmjhOtjQD2Pw" type="github">
  <diagram name="Page-1" id="9XZwQJwu-65bn4hVjt1D">
    <mxGraphModel>
      <root>
        <mxCell id="0" />
        <mxCell id="1" parent="0" />
      </root>
    </mxGraphModel>
  </diagram>
</mxfile>
